<?xml version="1.0" encoding="iso-8859-1"?>
<!-- Uploaded to: SVG Repo, www.svgrepo.com, Generator: SVG Repo Mixer Tools -->
<svg height="800px" width="800px" version="1.1" id="Layer_1" xmlns="http://www.w3.org/2000/svg" xmlns:xlink="http://www.w3.org/1999/xlink" 
	 viewBox="0 0 495 495" xml:space="preserve">
<g>
	<path style="fill:#FFA733;" d="M247.5,0v270.486h119.678v40H309.76v42.254c0,34.33-27.93,62.26-62.26,62.26v80
		C384.19,495,495,384.19,495,247.5S384.19,0,247.5,0z M323.514,241.486c-22.056,0-40-17.944-40-40s17.944-40,40-40s40,17.944,40,40
		S345.569,241.486,323.514,241.486z"/>
	<path style="fill:#FFCD00;" d="M185.24,352.74v-42.254h-57.418v-40H247.5V0C110.81,0,0,110.81,0,247.5S110.81,495,247.5,495v-80
		C213.17,415,185.24,387.07,185.24,352.74z M171.486,161.486c22.056,0,40,17.944,40,40s-17.944,40-40,40s-40-17.944-40-40
		S149.431,161.486,171.486,161.486z"/>
	<path style="fill:#FF7956;" d="M185.24,310.486v42.254c0,34.33,27.93,62.26,62.26,62.26V310.486H185.24z"/>
	<path style="fill:#554431;" d="M323.514,161.486c-22.056,0-40,17.944-40,40s17.944,40,40,40s40-17.944,40-40
		S345.569,161.486,323.514,161.486z"/>
	<path style="fill:#6A563D;" d="M171.486,241.486c22.056,0,40-17.944,40-40s-17.944-40-40-40s-40,17.944-40,40
		S149.431,241.486,171.486,241.486z"/>
	<path style="fill:#FF5023;" d="M127.822,310.486H247.5V415c34.33,0,62.26-27.93,62.26-62.26v-42.254h57.418v-40H127.822V310.486z"
		/>
</g>
</svg>